<?xml version="1.0" standalone="no"?>
<!DOCTYPE svg PUBLIC "-//W3C//DTD SVG 20010904//EN"
 "http://www.w3.org/TR/2001/REC-SVG-20010904/DTD/svg10.dtd">
<svg version="1.0" xmlns="http://www.w3.org/2000/svg"
 width="800.000000pt" height="800.000000pt" viewBox="0 0 800.000000 800.000000"
 preserveAspectRatio="xMidYMid meet">
<metadata>
Created by potrace 1.11, written by Peter Selinger 2001-2013
</metadata>
<g transform="translate(0.000000,800.000000) scale(0.100000,-0.100000)"
fill="#000000" stroke="none">
<path d="M820 6556 c-151 -41 -246 -94 -349 -195 -107 -105 -180 -240 -210
-387 -17 -84 -18 -195 -16 -2034 1 -1386 5 -1959 13 -1995 61 -277 257 -491
524 -573 96 -30 244 -46 256 -28 4 6 7 610 8 1341 1 1495 -4 1392 77 1554 52
105 180 241 255 274 15 6 34 16 42 22 19 15 92 41 155 56 29 7 151 13 295 15
135 2 250 3 257 4 6 0 64 91 128 203 65 111 158 272 207 357 50 85 110 176
135 201 129 133 347 153 502 46 24 -16 57 -44 72 -61 22 -25 130 -204 249
-414 107 -190 194 -332 203 -333 16 -1 694 -1 732 0 28 1 36 9 86 99 31 53 82
142 114 196 31 55 67 117 79 138 70 126 169 287 193 314 122 135 318 168 485
83 64 -33 129 -106 192 -215 31 -54 61 -106 66 -114 5 -8 25 -44 46 -80 69
-122 236 -413 240 -418 1 -2 119 -5 261 -7 142 -1 271 -6 287 -9 218 -50 395
-190 483 -382 61 -134 57 -33 63 -1518 l5 -1360 40 1 c214 4 416 93 558 247
87 95 161 236 182 348 3 13 8 36 11 52 8 38 7 3899 -1 3946 -22 128 -54 209
-118 307 -97 148 -222 244 -402 306 l-90 32 -3115 2 -3115 2 -85 -23z"/>
<path d="M2835 3809 c-22 -4 -51 -10 -64 -13 -238 -51 -464 -231 -580 -462
-105 -208 -122 -451 -46 -675 66 -194 209 -370 383 -472 65 -38 199 -92 252
-101 135 -23 210 -26 320 -10 162 23 295 81 421 182 149 119 246 266 301 458
30 106 32 333 4 439 -69 258 -246 472 -480 580 -121 56 -206 76 -346 80 -69 1
-143 -1 -165 -6z"/>
<path d="M5040 3800 c-261 -56 -486 -230 -603 -465 -108 -218 -123 -466 -41
-690 80 -222 241 -397 459 -499 201 -95 446 -106 665 -30 8 3 15 4 15 3 0 -7
162 86 206 118 424 314 476 937 109 1313 -129 132 -265 208 -445 251 -85 20
-269 19 -365 -1z"/>
</g>
</svg>
