<?xml version="1.0" encoding="utf-8"?>
<!-- Generator: Adobe Illustrator 24.1.3, SVG Export Plug-In . SVG Version: 6.00 Build 0)  -->
<svg version="1.1" id="Logo" xmlns="http://www.w3.org/2000/svg" xmlns:xlink="http://www.w3.org/1999/xlink" x="0px" y="0px"
	 viewBox="0 0 103.8 103.8" style="enable-background:new 0 0 103.8 103.8;" xml:space="preserve" preserveAspectRatio="xMidYMid" class="scaling-svg">
<style type="text/css">
	.st0{enable-background:new    ;}
	.st1{fill:#010101;}
	.st2{fill:#F89521;}
	.st3{fill:none;stroke:#010101;stroke-width:4;stroke-miterlimit:10;}
	.st4{fill:none;stroke:#010101;stroke-width:3;stroke-linejoin:round;}
</style>
<g>
	<g class="st0">
		<path class="st1" d="M20.5,64.6v3.1c0,3.8-1.9,5.9-5.5,5.9c-3.6,0-5.5-2.1-5.5-5.9V55.5c0-3.8,1.9-5.9,5.5-5.9
			c3.6,0,5.5,2.1,5.5,5.9v2.3H17v-2.5c0-1.7-0.7-2.3-1.9-2.3s-1.9,0.6-1.9,2.3V68c0,1.7,0.7,2.3,1.9,2.3S17,69.6,17,68v-3.4H20.5z"
			/>
	</g>
	<g class="st0">
		<path class="st1" d="M34.7,73.3H31l-0.6-4.3h-4.5l-0.6,4.3h-3.4l3.8-23.5h5.4L34.7,73.3z M26.3,65.9h3.6L28.1,54L26.3,65.9z"/>
	</g>
	<g class="st0">
		<path class="st1" d="M33.3,49.9h11.4v3.4h-3.9v20.1h-3.7V53.2h-3.9V49.9z"/>
		<path class="st1" d="M46.3,49.9H50V70h6.1v3.4h-9.8V49.9z"/>
	</g>
	<g class="st0">
		<path class="st1" d="M57.4,55.5c0-3.8,2-5.9,5.6-5.9s5.6,2.1,5.6,5.9v12.2c0,3.8-2,5.9-5.6,5.9s-5.6-2.1-5.6-5.9V55.5z M61.1,68
			c0,1.7,0.7,2.3,1.9,2.3s1.9-0.6,1.9-2.3V55.3c0-1.7-0.7-2.3-1.9-2.3s-1.9,0.6-1.9,2.3V68z"/>
	</g>
	<g class="st0">
		<path class="st1" d="M82.8,73.3h-3.7l-0.6-4.3H74l-0.6,4.3h-3.4l3.8-23.5h5.4L82.8,73.3z M74.4,65.9H78L76.2,54L74.4,65.9z"/>
		<path class="st1" d="M88.2,60.3H93v3.4h-4.8v9.7h-3.7V49.9h9.8v3.4h-6.1V60.3z"/>
	</g>
	<g class="st0">
		<path class="st2" d="M26.2,79.7c0,1.2-0.9,1.9-2.3,1.9H23v1.3h-1.4v-5.1h2.3C25.3,77.8,26.2,78.5,26.2,79.7z M24.7,79.7
			c0-0.5-0.3-0.7-0.9-0.7H23v1.5h0.8C24.4,80.4,24.7,80.1,24.7,79.7z"/>
	</g>
	<g class="st0">
		<path class="st2" d="M29.5,81.5h-0.8v1.4h-1.4v-5.1h2.3c1.4,0,2.3,0.7,2.3,1.9c0,0.8-0.4,1.3-1,1.6l1.1,1.6h-1.5L29.5,81.5z
			 M29.6,78.9h-0.8v1.5h0.8c0.6,0,0.9-0.3,0.9-0.7C30.4,79.2,30.1,78.9,29.6,78.9z"/>
		<path class="st2" d="M32.9,80.3c0-1.5,1.2-2.6,2.8-2.6s2.8,1.1,2.8,2.6c0,1.5-1.2,2.6-2.8,2.6S32.9,81.9,32.9,80.3z M37.1,80.3
			c0-0.9-0.6-1.5-1.4-1.5s-1.4,0.6-1.4,1.5c0,0.9,0.6,1.5,1.4,1.5S37.1,81.2,37.1,80.3z"/>
		<path class="st2" d="M39.7,77.8h2.4c1.7,0,2.8,1,2.8,2.5c0,1.6-1.2,2.5-2.8,2.5h-2.4V77.8z M42.1,81.7c0.9,0,1.4-0.5,1.4-1.4
			c0-0.9-0.6-1.4-1.4-1.4h-0.9v2.8H42.1z"/>
		<path class="st2" d="M46.1,80.6v-2.8h1.4v2.8c0,0.9,0.4,1.2,1,1.2c0.6,0,1-0.3,1-1.2v-2.8h1.4v2.8c0,1.5-0.9,2.4-2.4,2.4
			C47,83,46.1,82.1,46.1,80.6z"/>
	</g>
	<g class="st0">
		<path class="st2" d="M52.1,80.3c0-1.5,1.2-2.6,2.8-2.6c0.9,0,1.7,0.3,2.2,1l-0.9,0.8c-0.3-0.4-0.7-0.6-1.2-0.6
			c-0.8,0-1.4,0.6-1.4,1.5c0,0.9,0.6,1.5,1.4,1.5c0.5,0,0.9-0.2,1.2-0.6l0.9,0.8c-0.5,0.6-1.3,1-2.2,1C53.3,83,52.1,81.9,52.1,80.3z
			"/>
	</g>
	<g class="st0">
		<path class="st2" d="M59.2,78.9h-1.6v-1.1h4.6v1.1h-1.6v4h-1.4V78.9z"/>
		<path class="st2" d="M63.2,77.8h1.4v5.1h-1.4V77.8z"/>
		<path class="st2" d="M65.8,80.3c0-1.5,1.2-2.6,2.8-2.6c1.6,0,2.8,1.1,2.8,2.6c0,1.5-1.2,2.6-2.8,2.6C67,83,65.8,81.9,65.8,80.3z
			 M70,80.3c0-0.9-0.6-1.5-1.4-1.5s-1.4,0.6-1.4,1.5c0,0.9,0.6,1.5,1.4,1.5S70,81.2,70,80.3z"/>
		<path class="st2" d="M77.5,77.8v5.1h-1.2L74,80.2v2.7h-1.4v-5.1h1.2l2.2,2.7v-2.7H77.5z"/>
		<path class="st2" d="M78.6,82.4l0.5-1.1c0.5,0.3,1.1,0.5,1.7,0.5c0.6,0,0.8-0.2,0.8-0.4c0-0.8-2.9-0.2-2.9-2.1
			c0-0.9,0.7-1.7,2.3-1.7c0.7,0,1.3,0.2,1.8,0.4l-0.4,1.1c-0.5-0.3-1-0.4-1.4-0.4c-0.6,0-0.8,0.2-0.8,0.5c0,0.8,2.9,0.2,2.9,2.1
			c0,0.9-0.7,1.6-2.3,1.6C79.9,83,79.1,82.8,78.6,82.4z"/>
	</g>
	<path class="st3" d="M40.6,76.7"/>
	<path class="st4" d="M17.6,80.8h-6.4c-5.3,0-9.7-4.4-9.7-9.7c0,0,0,0,0,0V51.8c0-5.4,4.3-9.7,9.7-9.7c0,0,0,0,0,0h48.8
		c2.1,0,3.8-1.7,3.8-3.8c0,0,0,0,0,0v-7.4c0-2.1,1.7-3.8,3.8-3.8c0,0,0,0,0,0h1.9l2.4-4.1l0.9-1.6c0.4-0.8,1.5-1.1,2.3-0.6
		c0.3,0.2,0.5,0.4,0.6,0.6l0.9,1.6l2.4,4.1h8.3l2.4-4.1l0.9-1.6c0.4-0.8,1.5-1.1,2.3-0.6c0.3,0.2,0.5,0.4,0.6,0.6l0.9,1.6l2.4,4.1
		h1.9c2.1,0,3.8,1.7,3.8,3.8c0,0,0,0,0,0v41.9c0,4.5-3.6,8.1-8.1,8.1c0,0,0,0,0,0H87"/>
	<circle class="st1" cx="76.6" cy="38.8" r="4.9"/>
	<circle class="st2" cx="89.3" cy="38.8" r="4.9"/>
</g>
</svg>
